<?xml version="1.0" encoding="UTF-8"?>
<svg width="24px" height="24px" viewBox="0 0 24 24" version="1.1" xmlns="http://www.w3.org/2000/svg" xmlns:xlink="http://www.w3.org/1999/xlink">
    <!-- Generator: Sketch 61.2 (89653) - https://sketch.com -->
    <title>noun_Telephone_351444</title>
    <desc>Created with Sketch.</desc>
    <g id="Symbols" stroke="none" stroke-width="1" fill="none" fill-rule="evenodd" fill-opacity="0.87">
        <g id="contact/dark" transform="translate(-1111.000000, -27.000000)" fill="#000000" fill-rule="nonzero">
            <g id="Group-2" transform="translate(1111.000000, 27.000000)">
                <g id="noun_Telephone_351444">
                    <path d="M16.2855476,23.1828115 C16.1265636,23.1828115 15.9761716,23.0873035 15.9136716,22.9304675 C15.8324196,22.7251955 15.9324236,22.4925755 16.1378916,22.4109355 L16.2808596,22.3529275 C20.4839835,20.6130835 23.1999995,16.5492196 23.1999995,12 C23.1999995,5.82421987 18.1757796,0.799999982 12,0.799999982 C5.82421987,0.799999982 0.799999982,5.82421987 0.799999982,12 C0.799999982,16.5806636 3.54179592,20.6550795 7.78515583,22.3800795 C7.98984382,22.4632835 8.08827982,22.6964875 8.00507582,22.9011715 C7.92148382,23.1058595 7.68866783,23.2039075 7.48359183,23.1210915 C2.93749993,21.2730475 0,16.9078116 0,12 C0,5.38320388 5.38320388,0 12,0 C18.6167956,0 24,5.38320388 24,12 C24,16.8740236 21.0902355,21.2279275 16.5867196,23.0921875 L16.4332036,23.1542955 C16.3847636,23.1736315 16.3347636,23.1828115 16.2855476,23.1828115 Z" id="Path"></path>
                    <path d="M15.9735751,15.2187802 C15.404296,14.0352862 15.314169,13.9475416 15.2172306,13.8567954 C14.9864275,13.6402666 14.6582229,13.5209534 14.2940137,13.5209534 C14.1559942,13.5209534 14.0604408,13.5385506 14.0530527,13.5398384 C13.9976586,13.55014 13.943191,13.5625864 13.9099565,13.5756745 C13.8656422,13.589624 13.8107114,13.6072212 13.0675217,13.958085 C13.0333607,13.9748253 13.0052028,13.9840502 12.9872029,13.9840502 C12.7416284,13.9840502 12.1447681,13.4325408 11.661929,12.3926067 L11.6240763,12.3125621 C11.3434191,11.7179166 11.0692235,10.7013767 11.5312928,10.5035219 L11.6236131,10.4629612 C12.1932373,10.2116686 12.2892492,10.1687523 12.3404884,10.1384933 C12.402344,10.1039448 12.4540417,10.0666056 12.4863545,10.0359159 C12.7259306,9.83398263 12.9742749,9.46809698 12.9535004,9.03740388 C12.9424207,8.88418389 12.9299607,8.71014516 11.5105183,5.75709481 C11.3364943,5.29635806 10.9145844,5 10.4280489,5 L10.3098774,5.00321708 C10.0813811,5.02832524 9.75502462,5.11781015 8.74549064,5.88305753 C8.61116279,5.99829666 5.47777111,8.76614959 7.94229346,13.9542131 L8.11031909,14.3048616 C10.1413933,18.6613672 13.5503608,19 14.5465083,19 C14.7639249,19 14.9107174,18.9851935 14.9476437,18.9793966 L15.0635084,18.9793966 L15.1059745,18.9587933 C16.2858408,18.6999898 16.54388,18.5145814 16.6809778,18.372731 C17.0368771,18.0325952 17.100581,17.5141356 16.8439268,17.0750702 C16.6606996,16.6779894 16.5011823,16.3350101 16.3595845,16.0329386 L15.9735751,15.2187802 Z M15.9950398,17.7688738 C15.9881149,17.77424 15.8154759,17.8987041 14.9088787,18.0989233 C14.8945705,18.1004264 14.8784141,18.1027864 14.8617945,18.1062189 C14.8105553,18.1111544 14.7025419,18.1210253 14.5465178,18.1210253 C13.6957778,18.1210253 10.7798027,17.8205932 8.97583989,13.9512202 L8.80642929,13.5977809 C6.61241085,8.97989639 9.27173175,6.62728842 9.36405201,6.54702844 C10.0970837,5.99251294 10.3500462,5.89551712 10.4095905,5.87899223 L10.4280536,5.87899223 C10.5549934,5.87899223 10.6150055,6.03779378 10.6214672,6.05581733 L10.6385453,6.09745038 C11.8193381,8.55413879 11.9924404,9.02281715 12.0095185,9.08676759 C12.0169066,9.2404183 11.8525726,9.38355196 11.8558011,9.38398266 C11.7962521,9.41488332 11.5820687,9.50823137 11.2183228,9.66875132 L11.1310792,9.70737825 C10.0467616,10.1715474 10.2272519,11.5398082 10.7756431,12.703345 L10.7959544,12.7454043 C11.0267574,13.2421926 11.8668855,14.8630337 12.9872029,14.8630337 C13.1616901,14.8630337 13.3380256,14.8196866 13.502818,14.7381389 C14.0595143,14.4754723 14.1929204,14.416888 14.2252332,14.4040153 C14.2538543,14.3995105 14.4537295,14.3902812 14.536355,14.4649596 C14.6042091,14.5514428 14.8825595,15.0531666 15.984877,17.4424721 L16.00888,17.4875376 C16.019506,17.5047085 16.1095196,17.6585746 15.9950398,17.7688738 Z" id="Shape"></path>
                </g>
            </g>
        </g>
    </g>
</svg>