<?xml version="1.0" encoding="UTF-8"?>
<svg width="63px" height="62px" viewBox="0 0 63 62" version="1.1" xmlns="http://www.w3.org/2000/svg" xmlns:xlink="http://www.w3.org/1999/xlink">
    <!-- Generator: Sketch 58 (84663) - https://sketch.com -->
    <title>support logs</title>
    <desc>Created with Sketch.</desc>
    <g id="Main" stroke="none" stroke-width="1" fill="none" fill-rule="evenodd">
        <g id="project-page" transform="translate(-822.000000, -5128.000000)">
            <g id="challenge" transform="translate(159.000000, 4954.000000)">
                <g id="two-col" transform="translate(108.000000, 174.000000)">
                    <g id="Group-16" transform="translate(555.000000, 0.000000)">
                        <g id="support-logs">
                            <path d="M39.1383267,26.9517995 L39.1383267,1.03184531 C39.1383267,0.461972881 38.6763538,0 38.1064814,0 L1.09419015,0 C0.524317719,0 0.0623448386,0.461972881 0.0623448386,1.03184531 L0.0623448386,60.8788732 C0.0623448386,61.4487457 0.524317719,61.9107185 1.09419015,61.9107185 L38.1064814,61.9107185 C38.6501419,61.9107185 38.9168063,61.5667701 38.9064748,60.8788732 L39.1383267,26.9517995 Z M2.12603546,2.06369062 L37.0746361,2.06369062 L37.0746361,26.9517995 L37.0746361,59.8470279 C35.4881607,59.8508098 31.1853658,59.8508098 24.1662513,59.8470279 L9.08067284,59.8470279 L9.08067284,58.6327697 L7.01698222,58.6327697 L7.01698222,59.8470279 L2.12603546,59.8470279 L2.12603546,2.06369062 Z" id="Shape" fill="#E26A77" fill-rule="nonzero"></path>
                            <rect id="Rectangle" fill="#E26A77" fill-rule="nonzero" x="14.4462684" y="31.5951034" width="10.2725929" height="2.06369062"></rect>
                            <rect id="Rectangle" fill="#E26A77" fill-rule="nonzero" x="14.4462684" y="35.7224846" width="10.2725929" height="2.06369062"></rect>
                            <g id="support" transform="translate(14.386600, 10.914000)">
                                <path d="M0,0.513629636 L47.7675561,0.513629636 L47.7675561,41.0903709 L0,41.0903709 C0,32.4780194 0,25.8696812 0,21.2653564 C0,16.6610316 0,9.74378932 0,0.513629636 Z" id="Rectangle" fill="#FFFFFF"></path>
                                <g id="noun_help_1402798" fill="#E26A77" fill-rule="nonzero">
                                    <path d="M38.7190009,18.8038915 C38.1730379,18.8038915 37.7312516,18.3621052 37.7312516,17.8161422 L37.7312516,15.5956354 C37.7312516,6.36152993 30.6867857,2.22822354 23.7059832,2.22822354 C16.7251807,2.22822354 9.68071477,6.36152993 9.68071477,15.5956354 L9.68071477,17.8161422 C9.68071477,18.3621052 9.23892848,18.8038915 8.69296547,18.8038915 C8.14700245,18.8038915 7.70521617,18.3621052 7.70521617,17.8161422 L7.70521617,15.5956354 C7.70521617,6.5621665 14.2847454,0.252724943 23.7059832,0.252724943 C33.127221,0.252724943 39.7067502,6.5621665 39.7067502,15.5956354 L39.7067502,17.8161422 C39.7067502,18.3621052 39.2649638,18.8038915 38.7190009,18.8038915 Z" id="Path"></path>
                                    <path d="M8.69296557,31.1131383 L7.14189049,31.1131383 C3.20343307,31.1131383 0,27.9097053 0,23.9712479 C0,20.0327905 3.20343307,16.8283929 7.14189049,16.8283929 L8.69296557,16.8283929 C9.23892858,16.8283929 9.68071487,17.2701792 9.68071487,17.8161422 L9.68071487,30.1253891 C9.68071487,30.671352 9.23892848,31.1131383 8.69296557,31.1131383 Z M7.14189049,18.8038915 C4.29342983,18.8038915 1.9754986,21.1218227 1.9754986,23.9712479 C1.9754986,26.8197086 4.29342983,29.1376398 7.14189049,29.1376398 L7.70521627,29.1376398 L7.70521627,18.8038915 L7.14189049,18.8038915 Z" id="Shape"></path>
                                    <path d="M40.270076,31.1131383 L38.7190009,31.1131383 C38.1730379,31.1131383 37.7312516,30.671352 37.7312516,30.125389 L37.7312516,17.8161422 C37.7312516,17.2701792 38.1730379,16.8283929 38.7190009,16.8283929 L40.270076,16.8283929 C44.2085333,16.8283929 47.4119664,20.0327905 47.4119664,23.9712479 C47.4119664,27.9097053 44.2085333,31.1131383 40.270076,31.1131383 Z M39.7067501,29.1376397 L40.270076,29.1376397 C43.1185366,29.1376397 45.4364678,26.8197086 45.4364678,23.9712479 C45.4364678,21.1218227 43.1185366,18.8038915 40.2700759,18.8038915 L39.7067501,18.8038915 L39.7067501,29.1376397 L39.7067501,29.1376397 Z" id="Shape"></path>
                                    <g id="Group-15" transform="translate(12.327111, 9.758963)">
                                        <path d="M21.6783811,8.35932264 L19.1744366,8.35932264 L20.9464589,6.58730037 C21.215816,6.31973267 21.3672906,5.95575731 21.3672906,5.57609201 C21.3672906,5.1964267 21.215816,4.83245135 20.9464589,4.56488365 L18.5099283,2.12835303 C18.2423606,1.85899588 17.8783852,1.70752128 17.4987199,1.70752128 C17.1190546,1.70752128 16.7550793,1.85899588 16.4875116,2.12835303 L14.7154893,3.9003753 L14.7154893,1.39643078 C14.6946115,0.619011795 14.0582357,-0.000280098375 13.2805365,9.50414591e-08 L9.83279749,9.50414591e-08 C9.45222434,9.50414591e-08 9.08723847,0.151182285 8.81813262,0.420288139 C8.54902677,0.689393994 8.39784467,1.05437986 8.39784467,1.43495301 L8.39784467,3.93889752 L6.6258224,2.16687525 C6.3582547,1.89751811 5.99427934,1.7460435 5.61461404,1.7460435 C5.23494874,1.7460435 4.87097338,1.89751811 4.60340568,2.16687525 L2.16687506,4.60340587 C1.89751792,4.87097357 1.74604331,5.23494893 1.74604331,5.61461423 C1.74604331,5.99427953 1.89751792,6.35825489 2.16687506,6.62582259 L3.93889733,8.39784486 L1.43495282,8.39784486 C0.65725359,8.39756457 0.0208777824,9.01685647 -5.18696197e-13,9.79427545 L-5.18696197e-13,13.2420144 C-5.18696197e-13,14.034517 0.642450259,14.6769673 1.43495282,14.6769673 L3.93889733,14.6769673 L2.16687506,16.4489895 C1.89751792,16.7165572 1.74604331,17.0805326 1.74604331,17.4601979 C1.74604331,17.8398632 1.89751792,18.2038385 2.16687506,18.4714062 L4.60340568,20.9079369 C5.16919131,21.4484742 6.06003677,21.4484742 6.6258224,20.9079369 L8.39784467,19.1359146 L8.39784467,21.6398591 C8.38744619,22.0270621 8.5340252,22.4020233 8.80426635,22.6795192 C9.07450749,22.9570151 9.44545493,23.1133342 9.83279749,23.1133342 L13.2805365,23.1133342 C14.073039,23.1133342 14.7154893,22.4708839 14.7154893,21.6783813 L14.7154893,19.1744368 L16.4875116,20.9464591 C17.0532972,21.4869965 17.9441426,21.4869965 18.5099283,20.9464591 L20.9464589,18.5099285 C21.215816,18.2423608 21.3672906,17.8783854 21.3672906,17.4987201 C21.3672906,17.1190548 21.215816,16.7550794 20.9464589,16.4875117 L19.1744366,14.7154895 L21.6783811,14.7154895 C22.0657237,14.7156291 22.4366711,14.5591705 22.7069123,14.2816745 C22.9771534,14.0041786 23.1237324,13.6292174 23.113334,13.2420144 L23.113334,9.79427545 C23.113334,9.41370231 22.9621519,9.04871644 22.693046,8.77961059 C22.4239402,8.51050473 22.0589543,8.35932264 21.6783811,8.35932264 Z M21.1872228,12.7508561 L17.9706172,12.7508561 C17.4007755,12.7671927 16.8954784,13.1215012 16.6859271,13.651666 C16.4763758,14.1818307 16.6028818,14.7858637 17.0075616,15.1873867 L19.2611116,17.4601979 L17.5276116,19.1936979 L15.2162782,16.9112562 C14.8063896,16.5064135 14.1930897,16.3881339 13.6620443,16.6115102 C13.1309988,16.8348864 12.7866452,17.3559886 12.7893781,17.9320951 L12.7893781,21.187223 L10.3239558,21.187223 L10.3239558,17.9320951 C10.3076192,17.3622534 9.95331075,16.8569564 9.42314597,16.6474051 C8.89298119,16.4378538 8.28894818,16.5643597 7.88742521,16.9690395 L5.61461404,19.2418507 L3.85222233,17.4601979 L6.13466405,15.1777562 C6.52992125,14.7646637 6.64224122,14.1563501 6.42056491,13.629346 C6.19888859,13.1023419 5.68551844,12.7572154 5.11382514,12.7508561 L1.92611116,12.7508561 L1.92611116,10.2854338 L5.14271681,10.2854338 C5.7125585,10.2690972 6.21785557,9.91478872 6.42740687,9.38462393 C6.63695817,8.85445915 6.5104522,8.25042615 6.10577239,7.84890318 L3.85222233,5.57609201 L5.58572237,3.84259196 L7.8681641,6.12503369 C8.27805268,6.52987636 8.89135257,6.64815599 9.42239803,6.42477973 C9.95344349,6.20140346 10.2977971,5.68030133 10.2950642,5.10419477 L10.2950642,1.92611135 L12.7604865,1.92611135 L12.7604865,5.10419477 C12.757753,5.68277225 13.1050504,6.20559698 13.6394398,6.42737915 C14.1738292,6.64916131 14.7892687,6.52589144 15.1970171,6.11540313 L17.4987199,3.85222252 L19.23222,5.58572256 L16.9497782,7.85853374 C16.554521,8.27162624 16.4422011,8.87993984 16.6638774,9.4069439 C16.8855537,9.93394796 17.3989239,10.2790744 17.9706172,10.2854338 L21.1872228,10.2854338 L21.1872228,12.7508561 Z" id="Shape"></path>
                                        <path d="M11.556667,7.99336152 C9.61502306,7.99347748 8.03911315,9.56381299 8.03209357,11.5054443 C8.02512074,13.4470756 9.58967322,15.028727 11.5312659,15.0428353 C13.4728585,15.0569436 15.0602303,13.4981951 15.0814504,11.5566672 C15.0917405,10.6151799 14.7249281,9.70870918 14.0627844,9.03932893 C13.4006407,8.36994867 12.4982105,7.99336152 11.556667,7.99336152 Z M11.556667,13.1168172 C10.9065992,13.1166285 10.3213766,12.7228242 10.0763604,12.1206986 C9.8313441,11.518573 9.97532948,10.8280402 10.4405679,10.3740123 C10.9058064,9.91998443 11.5996451,9.79288163 12.1956165,10.0525088 C12.7915879,10.312136 13.1710035,10.9067881 13.1553392,11.5566672 C13.1294231,12.4223237 12.4226981,13.1120192 11.556667,13.1168172 Z" id="Shape"></path>
                                    </g>
                                </g>
                                <path d="M25.7785935,29.5169512 L27.7352286,30.7661002 L27.7360003,32.8722967 C27.7360003,36.0909174 25.0500031,38.7465451 21.7550349,38.7465451 L21.7550349,38.7465451 L15.2730845,38.7465451 C14.8598541,40.3399217 13.3483011,41.6040005 11.5431369,41.6040005 C9.4226128,41.6040005 7.70444454,39.9043988 7.70444454,37.8330092 L7.70444454,37.8330092 L7.70444454,37.684294 C7.70444454,35.6129045 9.4226128,33.9451703 11.5431369,33.9451703 C13.3591755,33.9451703 14.8707286,35.1348915 15.2730845,36.8344932 L15.2730845,36.8344932 L21.7550349,36.8344932 C23.9734293,36.8344932 25.7785935,35.0392889 25.7785935,32.8722967 L25.7785935,32.8722967 L25.7785935,29.5169512 Z M11.5757604,35.8359772 C10.53181,35.8359772 9.6727259,36.664533 9.6727259,37.684294 L9.6727259,37.684294 L9.6727259,37.8330092 C9.6727259,38.8527702 10.53181,39.6813261 11.5757604,39.6813261 C12.6197107,39.6813261 13.4787948,38.8527702 13.4787948,37.8330092 L13.4787948,37.8330092 L13.4787948,37.684294 C13.4787948,36.664533 12.6197107,35.8359772 11.5757604,35.8359772 Z" id="Shape" fill="#E26A77" fill-rule="nonzero" transform="translate(17.720222, 35.560476) scale(-1, 1) translate(-17.720222, -35.560476) "></path>
                            </g>
                            <rect id="Rectangle" fill="#E26A77" fill-rule="nonzero" x="14.4462684" y="7.53247076" width="14.1882004" height="2.06369062"></rect>
                            <rect id="Rectangle" fill="#E26A77" fill-rule="nonzero" x="14.4462684" y="11.659852" width="10.9140003" height="2.06369062"></rect>
                            <rect id="Rectangle" fill="#E26A77" fill-rule="nonzero" x="14.4462684" y="19.5637871" width="6.5484002" height="2.06369062"></rect>
                            <rect id="Rectangle" fill="#E26A77" fill-rule="nonzero" x="14.4462684" y="23.6911683" width="4.36560013" height="2.06369062"></rect>
                            <path d="M7.01698222,51.1382535 L7.01698222,52.9955751 L9.08067284,52.9955751 L9.08067284,51.1382535 L11.7841076,51.1382535 C12.35398,51.1382535 12.8159529,50.6762806 12.8159529,50.1064082 L12.8159529,43.0485863 C12.8159529,42.4787139 12.35398,42.016741 11.7841076,42.016741 L9.08067284,42.016741 L9.08067284,39.4371277 L11.7841076,39.4371277 C12.35398,39.4371277 12.8159529,38.9751548 12.8159529,38.4052824 L12.8159529,31.337142 C12.8159529,30.7672696 12.35398,30.3052967 11.7841076,30.3052967 L9.08067284,30.3052967 L9.08067284,27.395493 L11.7841076,27.395493 C12.35398,27.395493 12.8159529,26.9335201 12.8159529,26.3636476 L12.8159529,19.3058257 C12.8159529,18.7359533 12.35398,18.2739804 11.7841076,18.2739804 L9.08067284,18.2739804 L9.08067284,15.3641767 L11.7841076,15.3641767 C12.35398,15.3641767 12.8159529,14.9022038 12.8159529,14.3323313 L12.8159529,7.27450943 C12.8159529,6.704637 12.35398,6.24266412 11.7841076,6.24266412 L4.72628564,6.24266412 C4.15641321,6.24266412 3.69444033,6.704637 3.69444033,7.27450943 L3.69444033,14.3323313 C3.69444033,14.9022038 4.15641321,15.3641767 4.72628564,15.3641767 L7.01698222,15.3641767 L7.01698222,18.2739804 L4.72628564,18.2739804 C4.15641321,18.2739804 3.69444033,18.7359533 3.69444033,19.3058257 L3.69444033,26.3636476 C3.69444033,26.9335201 4.15641321,27.395493 4.72628564,27.395493 L7.01698222,27.395493 L7.01698222,30.3052967 L4.72628564,30.3052967 C4.15641321,30.3052967 3.69444033,30.7672696 3.69444033,31.337142 L3.69444033,38.4052824 C3.69444033,38.9751548 4.15641321,39.4371277 4.72628564,39.4371277 L7.01698222,39.4371277 L7.01698222,42.016741 L4.72628564,42.016741 C4.15641321,42.016741 3.69444033,42.4787139 3.69444033,43.0485863 L3.69444033,50.1064082 C3.69444033,50.6762806 4.15641321,51.1382535 4.72628564,51.1382535 L7.01698222,51.1382535 Z M5.75813094,8.30635474 L10.7522622,8.30635474 L10.7522622,13.300486 L5.75813094,13.300486 L5.75813094,8.30635474 Z M5.75813094,20.337671 L10.7522622,20.337671 L10.7522622,25.3318023 L5.75813094,25.3318023 L5.75813094,20.337671 Z M5.75813094,32.3689873 L10.7522622,32.3689873 L10.7522622,37.3734371 L5.75813094,37.3734371 L5.75813094,32.3689873 Z M5.75813094,44.0804316 L10.7522622,44.0804316 L10.7522622,49.0745629 L5.75813094,49.0745629 L5.75813094,44.0804316 Z" id="Shape" fill="#E26A77" fill-rule="nonzero"></path>
                            <rect id="Rectangle" fill="#E26A77" fill-rule="nonzero" x="14.4462684" y="43.3065476" width="5.13629645" height="2.06369062"></rect>
                            <rect id="Rectangle" fill="#E26A77" fill-rule="nonzero" x="14.4462684" y="47.4339289" width="6.5484002" height="2.06369062"></rect>
                            <rect id="Rectangle" fill="#E26A77" fill-rule="nonzero" x="7.01698222" y="55.0592657" width="2.06369062" height="2.06369062"></rect>
                        </g>
                    </g>
                </g>
            </g>
        </g>
    </g>
</svg>