<?xml version="1.0" encoding="UTF-8"?>
<svg width="64px" height="57px" viewBox="0 0 64 57" version="1.1" xmlns="http://www.w3.org/2000/svg" xmlns:xlink="http://www.w3.org/1999/xlink">
    <!-- Generator: Sketch 58 (84663) - https://sketch.com -->
    <title>noun_user research_2457895</title>
    <desc>Created with Sketch.</desc>
    <g id="Main" stroke="none" stroke-width="1" fill="none" fill-rule="evenodd">
        <g id="project-page" transform="translate(-267.000000, -5136.000000)" fill="#E26A77" fill-rule="nonzero">
            <g id="challenge" transform="translate(159.000000, 4954.000000)">
                <g id="two-col" transform="translate(108.000000, 174.000000)">
                    <g id="bullet" transform="translate(0.000000, 8.000000)">
                        <g id="noun_user-research_2457895">
                            <path d="M34.0377186,27.7874061 L34.0377186,33.6669374 L36.1564686,33.6669374 L36.1564686,27.7874061 C36.1555293,24.9449652 34.6421608,22.3177575 32.1838124,20.8908749 C34.472804,17.8904104 34.0928319,13.6389112 31.3080428,11.0919091 C28.5232538,8.54490702 24.2548085,8.54490702 21.4700195,11.0919091 C18.6852304,13.6389112 18.3052583,17.8904104 20.5942499,20.8908749 C18.1334161,22.3166629 16.6163015,24.9433692 16.6109999,27.7874061 L16.6109999,33.6669374 L18.7297499,33.6669374 L18.7297499,27.7874061 C18.7278904,25.4772881 20.0790096,23.3801521 22.1833124,22.4269687 L22.4693437,22.5964687 C22.6282499,22.7024062 22.7977499,22.7977499 22.9566562,22.8824999 C23.1043268,22.9617709 23.25642,23.0325119 23.4121874,23.0943749 C23.6607447,23.2103839 23.9153626,23.3129383 24.1749374,23.4015937 L24.1749374,23.4015937 C25.597417,23.8819473 27.1382702,23.8819473 28.5607499,23.4015937 L28.5607499,23.4015937 C28.8244711,23.3148226 29.0827209,23.2122302 29.3340936,23.0943749 C29.4863908,23.0324412 29.6349544,22.9616966 29.7790311,22.8824999 C29.9472972,22.7974534 30.1100552,22.7019216 30.2663436,22.5964687 L30.5629686,22.4269687 C32.6773849,23.3717137 34.0385283,25.4715264 34.0377186,27.7874061 Z M29.7366561,20.3717812 C28.3011008,21.5454154 26.3563501,21.8829342 24.6092811,21.2616562 C24.0371553,21.0622589 23.5059344,20.7607552 23.0414062,20.3717812 C21.3968215,18.9693308 20.8007603,16.6904145 21.5480781,14.662351 C22.2953958,12.6342874 24.2276599,11.2870294 26.3890311,11.2870294 C28.5504024,11.2870294 30.4826665,12.6342874 31.2299842,14.662351 C31.977302,16.6904145 31.3812408,18.9693308 29.7366561,20.3717812 L29.7366561,20.3717812 Z" id="Shape"></path>
                            <path d="M10.381875,34.5568124 C7.75571416,31.055325 6.3424572,26.7932395 6.35624997,22.4163749 C6.36933304,15.8108689 9.59422475,9.62442118 15.0019118,5.83103199 C20.4095988,2.0376428 27.3243641,1.11131479 33.5398124,3.34762499 L34.2601874,1.35599999 C24.9597015,-1.97290338 14.5762879,1.17550465 8.69074437,9.10904183 C2.80520081,17.042579 2.80362949,27.8928208 8.68687496,35.8280623 L10.381875,34.5568124 Z" id="Path"></path>
                            <path d="M48.1909685,40.9872186 L46.8985311,42.2796561 L42.6610311,38.0421561 C46.7418612,33.8481198 49.0227378,28.2257591 49.017281,22.3739999 C49.0159468,21.1962904 48.9238617,20.0204345 48.7418435,18.8568749 L46.6230936,19.1958749 C46.792774,20.2467368 46.8777973,21.3095273 46.8773436,22.3739999 C46.9077089,32.093988 40.0532439,40.4756135 30.5205936,42.3749998 L30.9231561,44.4937498 C34.6948952,43.771642 38.2141181,42.0813928 41.1355311,39.5888436 L45.3730311,43.8263436 L44.0805936,45.1187811 C42.9385829,46.2674905 42.9385829,48.1228216 44.0805936,49.271531 L51.7398748,56.941406 L53.2441873,55.4370935 L45.5531248,47.7354373 C45.2695648,47.4148275 45.2695648,46.9331097 45.5531248,46.6124998 L49.6846873,42.4809373 C50.0070048,42.160416 50.5276823,42.160416 50.8499998,42.4809373 L59.6322185,51.2737498 L61.136531,49.7906248 L52.3437185,40.9978123 C51.1979246,39.8528661 49.3425891,39.8481331 48.1909685,40.9872186 L48.1909685,40.9872186 Z" id="Path"></path>
                            <path d="M62.5031247,2.11874999 L37.0781248,2.11874999 C36.4930482,2.11874999 36.0187498,2.59304833 36.0187498,3.17812499 L36.0187498,15.8906249 C36.0187498,16.4757016 36.4930482,16.9499999 37.0781248,16.9499999 L62.5031247,16.9499999 C63.0882014,16.9499999 63.5624997,16.4757016 63.5624997,15.8906249 L63.5624997,3.17812499 C63.5624997,2.59304833 63.0882014,2.11874999 62.5031247,2.11874999 Z M61.4437497,14.8312499 L38.1374998,14.8312499 L38.1374998,4.23749998 L61.4437497,4.23749998 L61.4437497,14.8312499 Z" id="Shape"></path>
                            <rect id="Rectangle" x="40.2562498" y="6.35624997" width="19.0687499" height="2.11874999"></rect>
                            <rect id="Rectangle" x="40.2562498" y="10.59375" width="10.59375" height="2.11874999"></rect>
                            <rect id="Rectangle" x="52.9687498" y="10.59375" width="6.35624997" height="2.11874999"></rect>
                            <path d="M26.4843749,37.0781248 L1.059375,37.0781248 C0.474298341,37.0781248 0,37.5524232 0,38.1374998 L0,50.8499998 C0,51.4350764 0.474298341,51.9093748 1.059375,51.9093748 L26.4843749,51.9093748 C27.0694515,51.9093748 27.5437499,51.4350764 27.5437499,50.8499998 L27.5437499,38.1374998 C27.5437499,37.5524232 27.0694515,37.0781248 26.4843749,37.0781248 Z M25.4249999,49.7906248 L2.11874999,49.7906248 L2.11874999,39.1968748 L25.4249999,39.1968748 L25.4249999,49.7906248 Z" id="Shape"></path>
                            <rect id="Rectangle" x="4.23749998" y="41.3156248" width="19.0687499" height="2.11874999"></rect>
                            <rect id="Rectangle" x="4.23749998" y="45.5531248" width="10.59375" height="2.11874999"></rect>
                            <rect id="Rectangle" x="16.9499999" y="45.5531248" width="6.35624997" height="2.11874999"></rect>
                        </g>
                    </g>
                </g>
            </g>
        </g>
    </g>
</svg>