<?xml version="1.0" encoding="UTF-8"?>
<svg width="64px" height="70px" viewBox="0 0 64 70" version="1.1" xmlns="http://www.w3.org/2000/svg" xmlns:xlink="http://www.w3.org/1999/xlink">
    <!-- Generator: Sketch 58 (84663) - https://sketch.com -->
    <title>Group 25</title>
    <desc>Created with Sketch.</desc>
    <g id="Main" stroke="none" stroke-width="1" fill="none" fill-rule="evenodd">
        <g id="project-page" transform="translate(-822.000000, -5457.000000)" fill="#E26A77" fill-rule="nonzero">
            <g id="challenge" transform="translate(159.000000, 4954.000000)">
                <g id="two-col" transform="translate(108.000000, 174.000000)">
                    <g id="Group-26" transform="translate(555.000000, 329.000000)">
                        <g id="Group-25">
                            <path d="M62.610313,48.9703129 C61.7986869,48.2046293 60.6203501,47.9712207 59.5781255,48.3696879 C59.5561145,48.3193066 59.5302024,48.2707214 59.5006255,48.2243754 L59.5006255,12.7487501 C59.5006255,12.2137242 59.0669013,11.7800001 58.5318755,11.7800001 L29.4887502,11.7800001 C28.9537244,11.7800001 28.5200002,12.2137242 28.5200002,12.7487501 L28.5200002,65.0612505 C28.5200002,65.5962764 28.9537244,66.0300005 29.4887502,66.0300005 L48.5343754,66.0300005 C50.0857563,68.2358252 52.6189201,69.542214 55.3156254,69.5273163 C59.7811454,69.4900306 63.3845352,65.8650377 63.3951941,61.3993755 L63.3951941,50.9271879 C63.4036627,50.1965782 63.1213463,49.4925298 62.610313,48.9703129 Z M55.4028129,46.8100004 C54.6691685,46.0938215 53.6054361,45.8306682 52.6225004,46.1221879 L52.6225004,41.5690628 C52.6198107,40.7929404 52.2928334,40.0532705 51.7206317,39.5289057 C51.1484301,39.0045408 50.3830961,38.743218 49.6096879,38.8081253 C48.1536797,38.9989726 47.0687959,40.2459655 47.0812504,41.7143753 L47.0812504,53.7656254 C46.6758513,53.4806353 46.2279191,53.2615735 45.7540629,53.1165629 L45.7540629,48.2146879 C45.7540629,47.679662 45.3203387,47.2459379 44.7853128,47.2459379 L33.2668753,47.2459379 C32.7318494,47.2459379 32.2981252,47.679662 32.2981252,48.2146879 L32.2981252,57.3112504 C32.2981252,57.8462763 32.7318494,58.2800004 33.2668753,58.2800004 L43.6034378,58.2800004 L44.2621878,59.161563 L30.4575002,59.161563 L30.4575002,21.6612502 L57.5825004,21.6612502 L57.5825004,46.8487504 C56.9226915,46.7108739 56.2353186,46.8139799 55.6450004,47.1393754 C55.5743129,47.0225424 55.493257,46.9123064 55.4028129,46.8100004 Z M41.2881253,55.1896879 L42.1406253,56.3425004 L34.2356253,56.3425004 L34.2356253,49.1834379 L43.8165628,49.1834379 L43.8165628,52.9518754 C42.971647,53.0235659 42.1633089,53.328789 41.4818753,53.8334379 C41.2763325,53.987595 41.1404469,54.2170898 41.1041117,54.471436 C41.0677766,54.7257822 41.1339682,54.9841451 41.2881253,55.1896879 Z M57.5825004,13.7175001 L57.5825004,19.7237502 L30.4575002,19.7237502 L30.4575002,13.7175001 L57.5825004,13.7175001 Z M30.4575002,64.0925005 L30.4575002,61.079688 L45.7250004,61.079688 L46.8196879,62.5425005 C47.0734179,62.8584985 47.264158,63.2202469 47.3815629,63.6081255 C47.4300004,63.772813 47.4881254,63.927813 47.5462504,64.0925005 L30.4575002,64.0925005 Z M61.4575005,61.3993755 C61.4431974,64.4919798 59.1620632,67.1057863 56.0998316,67.5383873 C53.0376,67.9709883 50.1216801,66.0913687 49.2512504,63.1237505 C49.0671456,62.5080245 48.768013,61.9327694 48.3696879,61.428438 L43.5259378,54.9862504 C44.636751,54.6602715 45.8340823,55.0440315 46.5484379,55.9550004 L47.2750004,56.9237504 C47.525188,57.257334 47.9607646,57.3933979 48.356346,57.2615374 C48.7519275,57.1296769 49.0187504,56.7594799 49.0187504,56.3425004 L49.0187504,41.6853128 C49.0074648,41.2235486 49.3237588,40.8180434 49.7743754,40.7165628 C50.0213059,40.699883 50.263875,40.7877704 50.4428129,40.9587503 C50.5988326,41.1157392 50.6859716,41.3283584 50.6850004,41.5496878 L50.6850004,48.7475004 C50.6850004,48.7475004 50.6850004,48.7475004 50.6850004,48.7475004 L50.5493754,56.3909379 L52.4868754,56.3909379 L52.6225004,48.6409379 C52.6432008,48.206717 53.0015366,47.8654447 53.4362504,47.8659379 C53.6580031,47.8633133 53.87144,47.9502457 54.0282538,48.1070595 C54.1850676,48.2638733 54.272,48.4773102 54.2693754,48.6990629 L54.2693754,49.4062504 L54.1628129,56.3909379 L56.1003129,56.3909379 L56.2068754,49.3965629 L56.2068754,49.3965629 L56.2068754,49.3965629 C56.2121095,48.9386262 56.5820637,48.5686719 57.0400004,48.5634379 C57.2617531,48.5608133 57.4751901,48.6477457 57.6320039,48.8045595 C57.7888176,48.9613733 57.87575,49.1748102 57.8731254,49.3965629 L57.8731254,50.8400004 C57.8731254,50.8400004 57.8731254,50.8400004 57.8731254,50.8884379 L57.7375004,56.3715629 L59.6750005,56.3715629 L59.8106255,50.7334379 C59.8293514,50.2786659 60.2131973,49.9251808 60.6679692,49.9439067 C61.1227412,49.9626326 61.4762263,50.3464784 61.4575005,50.8012504 L61.4575005,61.3993755 Z" id="Shape"></path>
                            <rect id="Rectangle" x="32.3562502" y="23.1725002" width="11.1600001" height="1.93750001"></rect>
                            <path d="M56.1100004,27.8709377 C56.1100004,27.3359119 55.6762763,26.9021877 55.1412504,26.9021877 L33.2668753,26.9021877 C32.7318494,26.9021877 32.2981252,27.3359119 32.2981252,27.8709377 L32.2981252,38.9050003 C32.2981252,39.4400262 32.7318494,39.8737503 33.2668753,39.8737503 L42.5765628,39.8737503 C42.5765628,40.0481253 42.5765628,40.2128128 42.5765628,40.3871878 C42.5725572,42.1914109 43.2668704,43.927194 44.5140628,45.2309378 L45.9284379,43.9037503 C44.0149831,41.8843032 44.083447,38.7009708 46.0819568,36.7656583 C48.0804666,34.8303458 51.2643554,34.864172 53.2212966,36.8415079 C55.1782378,38.8188438 55.1790533,42.0029122 53.2231254,43.9812503 L54.5987504,45.3471878 C56.523506,43.3929808 57.1158785,40.4880768 56.1100004,37.9362503 L56.1100004,27.8709377 Z M49.5515629,33.3831253 C46.6518977,33.4111418 44.0684483,35.2207115 43.0512503,37.9362503 L34.3325003,37.9362503 L34.3325003,28.8396877 L54.1725004,28.8396877 L54.1725004,35.1365628 C52.89784,34.007656 51.2542633,33.3839928 49.5515629,33.3831253 L49.5515629,33.3831253 Z" id="Shape"></path>
                            <rect id="Rectangle" x="32.2981252" y="43.6615628" width="9.23218757" height="1.93750001"></rect>
                            <rect id="Rectangle-Copy-2" x="4.96000004" y="51.4600004" width="16.7400001" height="1.93750001" rx="0.968750007"></rect>
                            <rect id="Rectangle-Copy-3" x="4.96000004" y="54.5600004" width="16.7400001" height="1.93750001" rx="0.968750007"></rect>
                            <rect id="Rectangle" x="41.4625003" y="15.4612501" width="5.27000004" height="1.93750001"></rect>
                            <path d="M25.1875002,11.6250001 L0.968750007,11.6250001 C0.433724152,11.6250001 0,12.0587242 0,12.5937501 L0,65.0612505 C0,65.5962764 0.433724152,66.0300005 0.968750007,66.0300005 L25.1875002,66.0300005 C25.722526,66.0300005 26.1562502,65.5962764 26.1562502,65.0612505 L26.1562502,12.5937501 C26.1562502,12.0587242 25.722526,11.6250001 25.1875002,11.6250001 Z M24.2187502,64.0925005 L1.93750001,64.0925005 L1.93750001,13.5625001 L24.2187502,13.5625001 L24.2187502,64.0925005 Z" id="Shape"></path>
                            <path d="M4.84375004,31.9687502 L21.1478127,31.9687502 C21.6828385,31.9687502 22.1165627,31.5350261 22.1165627,31.0000001 L22.1165627,16.4687501 C22.1165627,15.9337243 21.6828385,15.5000001 21.1478127,15.5000001 L4.84375004,15.5000001 C4.30872418,15.5000001 3.87500003,15.9337243 3.87500003,16.4687501 L3.87500003,31.0000001 C3.87500003,31.5350261 4.30872418,31.9687502 4.84375004,31.9687502 Z M5.81250004,18.6290626 L18.6000001,30.0312502 L5.81250004,30.0312502 L5.81250004,18.6290626 Z M20.1790627,28.8396877 L7.36250006,17.4375001 L20.1790627,17.4375001 L20.1790627,28.8396877 Z" id="Shape"></path>
                            <path d="M12.5937501,9.68750007 C14.0003798,9.67658686 15.1972745,8.65983788 15.43548,7.27348136 C15.6736856,5.88712484 14.8848142,4.52917893 13.5625001,4.04937503 L13.5625001,1.93750001 L43.5937503,1.93750001 L43.5937503,6.90718755 L42.1890628,5.93843755 L41.1234378,7.54656256 L44.0296878,9.48406257 C44.3206882,9.67234606 44.6901075,9.69081702 44.9984378,9.53250007 L45.0759378,9.48406257 L47.9821879,7.54656256 L46.9165629,5.93843755 L45.5312504,6.90718755 L45.5312504,0.968750007 C45.5312504,0.433724152 45.0975262,0 44.5625003,0 L12.5937501,0 C12.0587242,0 11.6250001,0.433724152 11.6250001,0.968750007 L11.6250001,4.04937503 C10.302686,4.52917893 9.51381456,5.88712484 9.75202015,7.27348136 C9.99022574,8.65983788 11.1871204,9.67658686 12.5937501,9.68750007 Z M12.5937501,5.81250004 C13.128776,5.81250004 13.5625001,6.2462242 13.5625001,6.78125005 C13.5625001,7.31627591 13.128776,7.75000006 12.5937501,7.75000006 C12.0587242,7.75000006 11.6250001,7.31627591 11.6250001,6.78125005 C11.6250001,6.2462242 12.0587242,5.81250004 12.5937501,5.81250004 Z" id="Shape"></path>
                            <path d="M7.23656256,40.6875003 L18.7259376,40.6875003 C20.5985281,40.6875003 22.1165627,39.1694658 22.1165627,37.2968753 C22.1165627,35.4242848 20.5985281,33.9062503 18.7259376,33.9062503 L7.23656256,33.9062503 C5.36397206,33.9062503 3.84593753,35.4242848 3.84593753,37.2968753 C3.84593753,39.1694658 5.36397206,40.6875003 7.23656256,40.6875003 Z M7.23656256,35.8437503 L18.7259376,35.8437503 C19.5284764,35.8437503 20.1790627,36.4943365 20.1790627,37.2968753 C20.1790627,38.0994141 19.5284764,38.7500003 18.7259376,38.7500003 L7.23656256,38.7500003 C6.43402377,38.7500003 5.78343754,38.0994141 5.78343754,37.2968753 C5.78343754,36.4943365 6.43402377,35.8437503 7.23656256,35.8437503 Z" id="Shape"></path>
                            <path d="M7.23656256,49.4062504 L18.7259376,49.4062504 C20.5985281,49.4062504 22.1165627,47.8882158 22.1165627,46.0156254 C22.1165627,44.1430349 20.5985281,42.6250003 18.7259376,42.6250003 L7.23656256,42.6250003 C5.36397206,42.6250003 3.84593753,44.1430349 3.84593753,46.0156254 C3.84593753,47.8882158 5.36397206,49.4062504 7.23656256,49.4062504 Z M7.23656256,44.5625003 L18.7259376,44.5625003 C19.5284764,44.5625003 20.1790627,45.2130866 20.1790627,46.0156254 C20.1790627,46.8181641 19.5284764,47.4687504 18.7259376,47.4687504 L7.23656256,47.4687504 C6.43402377,47.4687504 5.78343754,46.8181641 5.78343754,46.0156254 C5.78343754,45.2130866 6.43402377,44.5625003 7.23656256,44.5625003 Z" id="Shape"></path>
                            <path d="M7.23656256,49.4062504 L18.7259376,49.4062504 C20.5985281,49.4062504 22.1165627,47.8882158 22.1165627,46.0156254 C22.1165627,44.1430349 20.5985281,42.6250003 18.7259376,42.6250003 L7.23656256,42.6250003 C5.36397206,42.6250003 3.84593753,44.1430349 3.84593753,46.0156254 C3.84593753,47.8882158 5.36397206,49.4062504 7.23656256,49.4062504 Z M7.23656256,44.5625003 L18.7259376,44.5625003 C19.5284764,44.5625003 20.1790627,45.2130866 20.1790627,46.0156254 C20.1790627,46.8181641 19.5284764,47.4687504 18.7259376,47.4687504 L7.23656256,47.4687504 C6.43402377,47.4687504 5.78343754,46.8181641 5.78343754,46.0156254 C5.78343754,45.2130866 6.43402377,44.5625003 7.23656256,44.5625003 Z" id="Shape"></path>
                            <path d="M7.28915927,62.6200005 L10.0708409,62.6200005 C11.3572,62.6200005 12.4000001,61.5096667 12.4000001,60.1400005 C12.4000001,58.7703343 11.3572,57.6600004 10.0708409,57.6600004 L7.28915927,57.6600004 C6.00280015,57.6600004 4.96000004,58.7703343 4.96000004,60.1400005 C4.96000004,61.5096667 6.00280015,62.6200005 7.28915927,62.6200005 Z M7.28915927,59.0771433 L10.0708409,59.0771433 C10.6221376,59.0771433 11.069052,59.5530007 11.069052,60.1400005 C11.069052,60.7270003 10.6221376,61.2028576 10.0708409,61.2028576 L7.28915927,61.2028576 C6.7378625,61.2028576 6.29094817,60.7270003 6.29094817,60.1400005 C6.29094817,59.5530007 6.7378625,59.0771433 7.28915927,59.0771433 Z" id="Shape"></path>
                            <path d="M16.5891593,62.6200005 L19.3708409,62.6200005 C20.6572001,62.6200005 21.7000002,61.5096667 21.7000002,60.1400005 C21.7000002,58.7703343 20.6572001,57.6600004 19.3708409,57.6600004 L16.5891593,57.6600004 C15.3028002,57.6600004 14.2600001,58.7703343 14.2600001,60.1400005 C14.2600001,61.5096667 15.3028002,62.6200005 16.5891593,62.6200005 Z M16.5891593,59.0771433 L19.3708409,59.0771433 C19.9221377,59.0771433 20.369052,59.5530007 20.369052,60.1400005 C20.369052,60.7270003 19.9221377,61.2028576 19.3708409,61.2028576 L16.5891593,61.2028576 C16.0378626,61.2028576 15.5909482,60.7270003 15.5909482,60.1400005 C15.5909482,59.5530007 16.0378626,59.0771433 16.5891593,59.0771433 Z" id="Shape-Copy-6"></path>
                        </g>
                    </g>
                </g>
            </g>
        </g>
    </g>
</svg>