<?xml version="1.0" encoding="UTF-8"?>
<svg width="24px" height="23px" viewBox="0 0 24 23" version="1.1" xmlns="http://www.w3.org/2000/svg" xmlns:xlink="http://www.w3.org/1999/xlink">
    <!-- Generator: Sketch 61.2 (89653) - https://sketch.com -->
    <title>noun_At_351442</title>
    <desc>Created with Sketch.</desc>
    <g id="Symbols" stroke="none" stroke-width="1" fill="none" fill-rule="evenodd" fill-opacity="0.5">
        <g id="contact/light" transform="translate(-575.000000, -28.000000)" fill="#FFFFFF" fill-rule="nonzero">
            <g id="Group" transform="translate(575.000000, 28.000000)">
                <g id="noun_At_351442">
                    <path d="M16.285548,23 C16.126564,23 15.976172,22.9052452 15.913672,22.7496459 C15.83242,22.5459927 15.932424,22.3152071 16.137892,22.2342109 L16.28086,22.1766603 C20.483984,20.4505365 23.2,16.4187155 23.2,11.9053699 C23.2,5.77829113 18.17578,0.793691327 12,0.793691327 C5.82422,0.793691327 0.8,5.77829113 0.8,11.9053699 C0.8,16.4499115 3.541796,20.4921973 7.785156,22.2035942 C7.989844,22.2861421 8.08828,22.5175071 8.005076,22.720577 C7.921484,22.9236509 7.688668,23.0209257 7.483592,22.9387627 C2.9375,21.1052921 0,16.7744837 0,11.9053699 C0,5.34075291 5.383204,0 12,0 C18.616796,0 24,5.34075291 24,11.9053699 C24,16.7409581 21.090236,21.0605319 16.58672,22.9100867 L16.433204,22.9717049 C16.384764,22.9908924 16.334764,23 16.285548,23 Z" id="Path"></path>
                    <path d="M16.5939003,7.40611055 C15.3691213,6.17717085 13.7347256,5.5 12,5.5 C8.41351549,5.5 5.5,8.4176784 5.5,12 C5.5,15.5865058 8.41351549,18.5 12,18.5 C13.2623786,18.5 14.5665537,18.0903618 15.665914,17.3421382 C15.7495195,17.304505 15.7913117,17.2752445 15.8331249,17.2376365 L15.8498368,17.2208995 C15.9292579,17.1331348 15.9752344,17.0244489 15.9752344,16.9073945 C15.9752344,16.6524146 15.7662313,16.4475955 15.515436,16.4475955 C15.4276463,16.4475955 15.3440409,16.4726759 15.2687998,16.5186482 L15.214459,16.5520971 C14.2614175,17.2250837 13.1536928,17.5803769 12,17.5803769 C8.92347047,17.5803769 6.41961774,15.0807052 6.41961774,12 C6.41961774,8.92347487 8.92347047,6.42377809 12,6.42377809 C15.0765337,6.42377809 17.5803864,8.92347487 17.5803864,12 C17.5803864,12.4597948 17.5218614,12.9112504 17.4131756,13.3501533 C17.3964637,13.4086784 17.3797268,13.4630234 17.3630149,13.5131801 L17.3337503,13.6009698 C17.0871392,14.248876 16.6440568,14.3826424 16.3179995,14.3826424 C15.7913075,14.3826424 15.3524052,13.9980846 15.2687998,13.4922881 L15.2562722,13.4922881 L15.2520879,13.3376256 L15.2520879,9.58809298 C15.2353761,9.35819348 15.0472691,9.17845478 14.8215291,9.17845478 C14.6417906,9.17845478 14.4829441,9.29132495 14.4160756,9.45851091 L14.3199426,9.70933165 L14.1192829,9.53375211 C13.5299067,9.02798073 12.7774998,8.74789952 11.9999875,8.74789952 C10.2025651,8.74789952 8.74372782,10.2067638 8.74372782,12 C8.74372782,13.7974288 10.2025651,15.256268 11.9999875,15.256268 C12.8945248,15.256268 13.7305372,14.8967864 14.3533622,14.2488844 L14.5247572,14.0649615 L14.6501549,14.2823333 C15.0012675,14.8842629 15.6450096,15.2562722 16.3388914,15.2562722 C16.990981,15.2562722 17.5970941,14.9344238 17.9607553,14.3909941 C18.4038419,13.726376 18.5,12.7231516 18.5,12 C18.5,10.2652638 17.8228133,8.63505025 16.5939003,7.40611055 Z M11.9999916,14.3909858 C10.6832889,14.3909858 9.60900893,13.3208886 9.60900893,12 C9.60900893,10.6832705 10.6832889,9.61317338 11.9999916,9.61317338 C13.3167194,9.61317338 14.3868152,10.6832705 14.3868152,12 C14.3868152,13.3208886 13.3167194,14.3909858 11.9999916,14.3909858 Z" id="Shape"></path>
                </g>
            </g>
        </g>
    </g>
</svg>