<?xml version="1.0" encoding="UTF-8"?>
<svg width="64px" height="59px" viewBox="0 0 64 59" version="1.1" xmlns="http://www.w3.org/2000/svg" xmlns:xlink="http://www.w3.org/1999/xlink">
    <!-- Generator: Sketch 58 (84663) - https://sketch.com -->
    <title>Group 38</title>
    <desc>Created with Sketch.</desc>
    <g id="Main" stroke="none" stroke-width="1" fill="none" fill-rule="evenodd">
        <g id="project-page" transform="translate(-267.000000, -5467.000000)" fill="#E26A77" fill-rule="nonzero">
            <g id="challenge" transform="translate(159.000000, 4954.000000)">
                <g id="two-col" transform="translate(108.000000, 174.000000)">
                    <g id="Group-24" transform="translate(0.000000, 339.000000)">
                        <g id="system">
                            <g id="Group-38">
                                <g id="rects" transform="translate(0.000000, 10.660000)">
                                    <path d="M17.9374998,16.3999999 L12.8124999,16.3999999 L10.2499999,16.3999999 L1.28124999,16.3999999 C0.573635159,16.3999999 0,16.973635 0,17.6812498 L0,24.0874998 C0,24.7951146 0.573635159,25.3687498 1.28124999,25.3687498 L17.9374998,25.3687498 C18.6451147,25.3687498 19.2187498,24.7951146 19.2187498,24.0874998 L19.2187498,17.6812498 C19.2187498,16.973635 18.6451147,16.3999999 17.9374998,16.3999999 Z M16.6562499,22.8062498 L2.56249998,22.8062498 L2.56249998,18.9624998 L16.6562499,18.9624998 L16.6562499,22.8062498 Z" id="Shape"></path>
                                    <path d="M62.2174995,4.91999996 L12.8124999,4.91999996 L10.2499999,4.91999996 L1.28124999,4.91999996 C0.573635159,4.91999996 0,5.49363512 0,6.20124995 L0,12.6074999 C0,13.3151147 0.573635159,13.8887499 1.28124999,13.8887499 L62.2174995,13.8887499 C62.9251143,13.8887499 63.4987494,13.3151147 63.4987494,12.6074999 L63.4987494,6.20124995 C63.4987494,5.49363512 62.9251143,4.91999996 62.2174995,4.91999996 Z M60.9362495,11.3262499 L2.56249998,11.3262499 L2.56249998,7.48249993 L60.9362495,7.48249993 L60.9362495,11.3262499 Z" id="Shape"></path>
                                    <path d="M40.0774997,16.3999999 L34.9524997,16.3999999 L32.3899997,16.3999999 L23.4212498,16.3999999 C22.713635,16.3999999 22.1399998,16.973635 22.1399998,17.6812498 L22.1399998,24.0874998 C22.1399998,24.7951146 22.713635,25.3687498 23.4212498,25.3687498 L40.0774997,25.3687498 C40.7851145,25.3687498 41.3587496,24.7951146 41.3587496,24.0874998 L41.3587496,17.6812498 C41.3587496,16.973635 40.7851145,16.3999999 40.0774997,16.3999999 Z M38.7962497,22.8062498 L24.7024998,22.8062498 L24.7024998,18.9624998 L38.7962497,18.9624998 L38.7962497,22.8062498 Z" id="Shape-Copy"></path>
                                    <path d="M17.9374998,27.8799998 L12.8124999,27.8799998 L10.2499999,27.8799998 L1.28124999,27.8799998 C0.573635159,27.8799998 0,28.4536349 0,29.1612497 L0,35.5674997 C0,36.2751145 0.573635159,36.8487497 1.28124999,36.8487497 L17.9374998,36.8487497 C18.6451147,36.8487497 19.2187498,36.2751145 19.2187498,35.5674997 L19.2187498,29.1612497 C19.2187498,28.4536349 18.6451147,27.8799998 17.9374998,27.8799998 Z M16.6562499,34.2862497 L2.56249998,34.2862497 L2.56249998,30.4424997 L16.6562499,30.4424997 L16.6562499,34.2862497 Z" id="Shape-Copy-2"></path>
                                    <path d="M17.9374998,39.3599997 L12.8124999,39.3599997 L10.2499999,39.3599997 L1.28124999,39.3599997 C0.573635159,39.3599997 0,39.9336348 0,40.6412496 L0,47.0474996 C0,47.7551144 0.573635159,48.3287496 1.28124999,48.3287496 L17.9374998,48.3287496 C18.6451147,48.3287496 19.2187498,47.7551144 19.2187498,47.0474996 L19.2187498,40.6412496 C19.2187498,39.9336348 18.6451147,39.3599997 17.9374998,39.3599997 Z M16.6562499,45.7662496 L2.56249998,45.7662496 L2.56249998,41.9224996 L16.6562499,41.9224996 L16.6562499,45.7662496 Z" id="Shape-Copy-4"></path>
                                    <path d="M62.2174995,39.3599997 L34.9524997,39.3599997 L32.3899997,39.3599997 L23.4212498,39.3599997 C22.713635,39.3599997 22.1399998,39.9336348 22.1399998,40.6412496 L22.1399998,47.0474996 C22.1399998,47.7551144 22.713635,48.3287496 23.4212498,48.3287496 L62.2174995,48.3287496 C62.9251143,48.3287496 63.4987494,47.7551144 63.4987494,47.0474996 L63.4987494,40.6412496 C63.4987494,39.9336348 62.9251143,39.3599997 62.2174995,39.3599997 Z M60.9362495,45.7662496 L24.7024998,45.7662496 L24.7024998,41.9224996 L60.9362495,41.9224996 L60.9362495,45.7662496 Z" id="Shape-Copy-5"></path>
                                    <path d="M40.0774997,27.8799998 L34.9524997,27.8799998 L32.3899997,27.8799998 L23.4212498,27.8799998 C22.713635,27.8799998 22.1399998,28.4536349 22.1399998,29.1612497 L22.1399998,35.5674997 C22.1399998,36.2751145 22.713635,36.8487497 23.4212498,36.8487497 L40.0774997,36.8487497 C40.7851145,36.8487497 41.3587496,36.2751145 41.3587496,35.5674997 L41.3587496,29.1612497 C41.3587496,28.4536349 40.7851145,27.8799998 40.0774997,27.8799998 Z M38.7962497,34.2862497 L24.7024998,34.2862497 L24.7024998,30.4424997 L38.7962497,30.4424997 L38.7962497,34.2862497 Z" id="Shape-Copy-3"></path>
                                    <rect id="Rectangle" transform="translate(9.840000, 26.701250) rotate(90.000000) translate(-9.840000, -26.701250) " x="8.19999993" y="25.4199998" width="3.27999997" height="2.56249998"></rect>
                                    <rect id="Rectangle-Copy" transform="translate(31.980000, 26.701250) rotate(90.000000) translate(-31.980000, -26.701250) " x="30.3399997" y="25.4199998" width="3.27999997" height="2.56249998"></rect>
                                    <rect id="Rectangle-Copy" transform="translate(42.640000, 9.481250) rotate(90.000000) translate(-42.640000, -9.481250) " x="40.1799996" y="8.19999993" width="4.91999996" height="2.56249998"></rect>
                                    <rect id="Rectangle-Copy" transform="translate(31.980000, 14.401250) rotate(90.000000) translate(-31.980000, -14.401250) " x="29.5199997" y="13.1199999" width="4.91999996" height="2.56249998"></rect>
                                    <rect id="Rectangle-Copy" transform="translate(31.980000, 2.921250) rotate(90.000000) translate(-31.980000, -2.921250) " x="29.5199997" y="1.63999999" width="4.91999996" height="2.56249998"></rect>
                                    <path d="M62.2174995,16.3999999 L57.0924995,16.3999999 L54.5299995,16.3999999 L45.5612496,16.3999999 C44.8536348,16.3999999 44.2799996,16.973635 44.2799996,17.6812498 L44.2799996,24.0874998 C44.2799996,24.7951146 44.8536348,25.3687498 45.5612496,25.3687498 L62.2174995,25.3687498 C62.9251143,25.3687498 63.4987494,24.7951146 63.4987494,24.0874998 L63.4987494,17.6812498 C63.4987494,16.973635 62.9251143,16.3999999 62.2174995,16.3999999 Z M60.9362495,22.8062498 L46.8424996,22.8062498 L46.8424996,18.9624998 L60.9362495,18.9624998 L60.9362495,22.8062498 Z" id="Shape-Copy"></path>
                                    <path d="M62.2174995,27.8799998 L57.0924995,27.8799998 L54.5299995,27.8799998 L45.5612496,27.8799998 C44.8536348,27.8799998 44.2799996,28.4536349 44.2799996,29.1612497 L44.2799996,35.5674997 C44.2799996,36.2751145 44.8536348,36.8487497 45.5612496,36.8487497 L62.2174995,36.8487497 C62.9251143,36.8487497 63.4987494,36.2751145 63.4987494,35.5674997 L63.4987494,29.1612497 C63.4987494,28.4536349 62.9251143,27.8799998 62.2174995,27.8799998 Z M60.9362495,34.2862497 L46.8424996,34.2862497 L46.8424996,30.4424997 L60.9362495,30.4424997 L60.9362495,34.2862497 Z" id="Shape-Copy-3"></path>
                                    <rect id="Rectangle-Copy" transform="translate(54.120000, 26.701250) rotate(90.000000) translate(-54.120000, -26.701250) " x="52.4799995" y="25.4199998" width="3.27999997" height="2.56249998"></rect>
                                    <rect id="Rectangle-Copy" transform="translate(54.120000, 38.181250) rotate(90.000000) translate(-54.120000, -38.181250) " x="52.4799995" y="36.8999997" width="3.27999997" height="2.56249998"></rect>
                                    <rect id="Rectangle-Copy" x="18.8599998" y="42.6399996" width="3.27999997" height="2.56249998"></rect>
                                    <rect id="Rectangle-Copy" x="18.8599998" y="31.1599997" width="3.27999997" height="2.56249998"></rect>
                                </g>
                                <path d="M57.5822302,0.497989885 C54.7516303,0.497989885 52.3254019,2.68914538 52.0221234,5.47788874 L37.5545884,5.47788874 C37.5545884,2.48994943 35.0272672,-1.77635684e-15 31.9944816,-1.77635684e-15 C28.9616961,-1.77635684e-15 26.4343748,2.48994943 26.4343748,5.47788874 L19.8633395,5.47788874 L17.8414825,5.47788874 L11.1468399,5.47788874 C10.8435614,2.48994943 8.11405437,0.199195954 5.08126883,0.497989885 C2.0484833,0.796783816 -0.276652283,3.4859292 0.0266262704,6.47386851 C0.329904824,9.46180782 3.05941181,11.7525613 6.09219735,11.4537674 C8.41733292,11.2545714 10.3380971,9.66100377 10.9446542,7.46984828 L26.6365605,7.46984828 C27.4453033,10.3581896 30.4780889,12.0513552 33.5108744,11.2545714 C35.4316386,10.7565815 36.8469385,9.26261186 37.3524027,7.46984828 L44.1256238,7.46984828 L46.1474808,7.46984828 L52.2243091,7.46984828 C53.0330519,10.3581896 56.1669303,12.0513552 59.0986229,11.2545714 C62.0303156,10.4577876 63.7488941,7.3702503 62.9401513,4.48190897 C62.2325013,2.09155752 60.1095515,0.497989885 57.5822302,0.497989885 Z M2.0484833,5.97587862 C2.0484833,4.08351706 3.66596892,2.48994943 5.58673309,2.48994943 C7.50749726,2.48994943 9.12498288,4.08351706 9.12498288,5.97587862 C9.12498288,7.86824018 7.50749726,9.46180782 5.58673309,9.46180782 C3.66596892,9.46180782 2.0484833,7.86824018 2.0484833,5.97587862 Z M31.9944816,9.26261186 C30.0737175,9.26261186 28.4562318,7.66904423 28.4562318,5.77668267 C28.4562318,3.8843211 30.0737175,2.29075347 31.9944816,2.29075347 C33.9152458,2.29075347 35.5327314,3.8843211 35.5327314,5.77668267 L35.5327314,5.77668267 C35.5327314,7.66904423 33.9152458,9.26261186 31.9944816,9.26261186 Z M57.5822302,9.46180782 C55.661466,9.46180782 54.0439804,7.86824018 54.0439804,5.97587862 C54.0439804,4.08351706 55.661466,2.48994943 57.5822302,2.48994943 C59.5029944,2.48994943 61.12048,4.08351706 61.12048,5.97587862 C61.12048,7.86824018 59.5029944,9.46180782 57.5822302,9.46180782 Z" id="Shape"></path>
                            </g>
                        </g>
                    </g>
                </g>
            </g>
        </g>
    </g>
</svg>