<?xml version="1.0" encoding="UTF-8"?>
<svg width="64px" height="53px" viewBox="0 0 64 53" version="1.1" xmlns="http://www.w3.org/2000/svg" xmlns:xlink="http://www.w3.org/1999/xlink">
    <!-- Generator: Sketch 58 (84663) - https://sketch.com -->
    <title>noun_persona_2457879</title>
    <desc>Created with Sketch.</desc>
    <g id="Main" stroke="none" stroke-width="1" fill="none" fill-rule="evenodd">
        <g id="project-page" transform="translate(-267.000000, -5301.000000)" fill="#E26A77" fill-rule="nonzero">
            <g id="challenge" transform="translate(159.000000, 4954.000000)">
                <g id="two-col" transform="translate(108.000000, 174.000000)">
                    <g id="Group-23" transform="translate(0.000000, 173.000000)">
                        <g id="noun_persona_2457879">
                            <path d="M26.6813256,27.8536143 L26.6813256,34.5167984 L29.1023987,34.5167984 L29.1023987,27.8536143 C29.1013254,24.6323188 27.3720153,21.6549439 24.5628867,20.0378793 C27.178493,16.6374981 26.744303,11.8193381 23.5621541,8.932859 C20.3800053,6.04637992 15.5024984,6.04637992 12.3203496,8.932859 C9.13820078,11.8193381 8.70401071,16.6374981 11.319617,20.0378793 C8.50764843,21.6537033 6.77405779,24.63051 6.76799969,27.8536143 L6.76799969,34.5167984 L9.18907275,34.5167984 L9.18907275,27.8536143 C9.18694784,25.2355923 10.7308574,22.8589396 13.1354218,21.7787112 L13.4622667,21.970803 C13.6438472,22.0908604 13.837533,22.198912 14.0191135,22.2949579 C14.1878552,22.3847945 14.3616505,22.4649643 14.5396442,22.5350727 C14.823668,22.666544 15.1146172,22.7827673 15.4112305,22.8832391 C17.0366829,23.4276167 18.7973994,23.4276167 20.4228518,22.8832391 C20.7242032,22.7849027 21.0193025,22.6686363 21.3065434,22.5350727 C21.4805717,22.4648841 21.6503339,22.3847103 21.8149688,22.2949579 C22.0072447,22.198576 22.1932264,22.0903112 22.3718156,21.970803 L22.7107658,21.7787112 C25.1268868,22.8493766 26.6822509,25.2290627 26.6813256,27.8536143 Z M15.9075505,20.4580801 C15.2537883,20.2321063 14.6467679,19.8904166 14.1159564,19.4495982 C12.236707,17.8602224 11.5555943,15.2775609 12.4095463,12.979187 C13.2634984,10.6808131 15.4714759,9.15398595 17.9412519,9.15398595 C20.4110278,9.15398595 22.6190054,10.6808131 23.4729574,12.979187 C24.3269095,15.2775609 23.6457967,17.8602224 21.7665473,19.4495982 C20.1261535,20.7796603 17.9039076,21.1621651 15.9075505,20.4580801 Z" id="Shape"></path>
                            <path d="M30.4559986,42.976798 C30.4559986,45.0326227 32.1225738,46.6991979 34.1783984,46.6991979 C36.2342231,46.6991979 37.9007983,45.0326227 37.9007983,42.976798 C37.9007983,40.9209734 36.2342231,39.2543982 34.1783984,39.2543982 C32.1225738,39.2543982 30.4559986,40.9209734 30.4559986,42.976798 Z M34.1783984,41.1155981 C35.2063108,41.1155981 36.0395984,41.9488857 36.0395984,42.976798 C36.0395984,44.0047104 35.2063108,44.837998 34.1783984,44.837998 C33.1504861,44.837998 32.3171985,44.0047104 32.3171985,42.976798 C32.3171985,41.9488857 33.1504861,41.1155981 34.1783984,41.1155981 Z" id="Shape" transform="translate(34.178398, 42.976798) rotate(90.000000) translate(-34.178398, -42.976798) "></path>
                            <path d="M18.7388647,54.3263609 L21.530458,52.3809745 L20.5534003,50.7663037 L19.2041303,51.7389969 L19.2041303,39.1291962 C21.0189513,38.63938 22.2022318,36.8153664 21.9660571,34.8717174 C21.7298823,32.9280684 20.1479383,31.4711986 18.2735992,31.4711986 C16.3992601,31.4711986 14.817316,32.9280684 14.5811413,34.8717174 C14.3449665,36.8153664 15.528247,38.63938 17.3430681,39.1291962 L17.3430681,51.7000892 L15.993798,50.727396 L14.9702138,52.3809745 L17.7618071,54.3263609 C18.0413269,54.5154108 18.396172,54.533957 18.6923382,54.3749956 L18.7388647,54.3263609 Z M16.3660104,35.3746003 C16.3660104,34.300193 17.1992364,33.4292138 18.2270726,33.4292138 C19.2549089,33.4292138 20.0881348,34.300193 20.0881348,35.3746003 C20.0881348,36.4490076 19.2549089,37.3199868 18.2270726,37.3199868 C17.1992364,37.3199868 16.3660104,36.4490076 16.3660104,35.3746003 Z" id="Shape" transform="translate(18.273599, 42.976798) scale(-1, 1) rotate(90.000000) translate(-18.273599, -42.976798) "></path>
                            <path d="M58.2446091,41.5808972 L55.6966563,41.5808972 L55.6966563,40.3118973 C55.6962603,40.0829925 55.5721168,39.8720455 55.3717923,39.7598824 L52.5499345,38.1990125 C53.3287237,37.1263936 53.7478059,35.8363105 53.7474724,34.5125679 C53.7474724,34.3602879 53.7474724,34.2143529 53.7474724,34.0620729 C53.7116003,33.7391538 53.4366424,33.4953971 53.1104842,33.497368 L48.4158811,33.497368 L48.4158811,28.8464835 C48.4178597,28.5215994 48.1731471,28.2477155 47.8489616,28.2119836 C47.6960844,28.2119836 47.5495771,28.2119836 47.3967,28.2119836 C44.3579583,28.2186404 41.7470566,30.3624269 41.1605854,33.332398 L40.4089393,33.332398 L40.4089393,29.5253984 L42.319904,29.5253984 C42.6717028,29.5253984 42.9568922,29.2413231 42.9568922,28.8908985 L42.9568922,26.3528988 C42.9568922,26.0024741 42.6717028,25.7183988 42.319904,25.7183988 L34.1009865,25.7183988 C33.7491876,25.7183988 33.4639983,26.0024741 33.4639983,26.3528988 L33.4639983,28.8908985 C33.4639983,29.2413231 33.7491876,29.5253984 34.1009865,29.5253984 L39.1349629,29.5253984 L39.1349629,33.966898 C39.1349629,34.3173226 39.4201523,34.6013979 39.7719511,34.6013979 L41.0459275,34.6013979 C41.1010994,37.0830305 42.6039975,39.3047256 44.8923527,40.2874679 C47.1807079,41.2702102 49.8342364,40.8335073 51.6836306,39.1697974 L54.4226799,40.6862523 L54.4226799,41.5808972 L49.9637624,41.5808972 C49.6119636,41.5808972 49.3267742,41.8649725 49.3267742,42.2153971 L49.3267742,45.3878968 C49.3267742,45.7383214 49.6119636,46.0223967 49.9637624,46.0223967 L58.2446091,46.0223967 C58.596408,46.0223967 58.8815973,45.7383214 58.8815973,45.3878968 L58.8815973,42.2153971 C58.8815973,41.8649725 58.596408,41.5808972 58.2446091,41.5808972 Z M34.7379747,26.9873987 L41.6829157,26.9873987 L41.6829157,28.2563986 L34.7379747,28.2563986 L34.7379747,26.9873987 Z M47.4158096,39.5695325 C44.643171,39.570156 42.3788225,37.3625821 42.319904,34.6013979 L44.2308686,34.6013979 L44.2308686,33.332398 L42.4664112,33.332398 C42.9970804,31.1561208 44.8968797,29.583436 47.1419047,29.4619484 L47.1419047,34.1318679 C47.1419047,34.4822926 47.427094,34.7663679 47.7788929,34.7663679 L52.4671261,34.7663679 C52.412727,35.7860091 52.0508748,36.7656064 51.4288353,37.5772026 L49.6388984,36.5873827 L49.0019102,37.6914126 L50.4860928,38.5099175 C49.6084528,39.191588 48.5287111,39.564228 47.4158096,39.5695325 L47.4158096,39.5695325 Z M57.6076209,44.7533968 L50.6007506,44.7533968 L50.6007506,42.849897 L57.6076209,42.849897 L57.6076209,44.7533968 Z" id="Shape"></path>
                            <path d="M50.6134243,31.8095985 L54.9665708,31.8095985 C55.1135306,31.8091258 55.2537025,31.7476823 55.353635,31.6399314 C55.4530273,31.5342406 55.5047672,31.392439 55.4967957,31.247576 C55.3335186,28.63883 53.2540575,26.5594276 50.6452378,26.3961551 C50.4991872,26.3873763 50.3560004,26.4393374 50.2495723,26.5397384 C50.1431442,26.6401394 50.0829358,26.7800551 50.0831986,26.926365 L50.0831986,31.2793886 C50.0831986,31.5722155 50.3205892,31.8095985 50.6134243,31.8095985 Z M51.1436492,27.5308044 C52.7655126,27.8598316 54.0330779,29.1273611 54.3621144,30.7491787 L51.1436492,30.7491787 L51.1436492,27.5308044 Z" id="Shape"></path>
                            <g id="Group-17" transform="translate(33.839998, 11.640959)">
                                <path d="M3.18494103,3.8069996 L24.7231048,3.8069996 C25.0749036,3.8069996 25.360093,3.5229243 25.360093,3.17249967 L25.360093,0.634499933 C25.360093,0.284075296 25.0749036,-4.4408921e-16 24.7231048,-4.4408921e-16 L0.636988206,-4.4408921e-16 C0.285189334,-4.4408921e-16 2.48689958e-14,0.284075296 2.48689958e-14,0.634499933 L2.48689958e-14,3.17249967 C2.48689958e-14,3.5229243 0.285189334,3.8069996 0.636988206,3.8069996 L1.91096462,3.8069996 L3.18494103,3.8069996 Z M1.27397641,1.26899987 L24.0861165,1.26899987 L24.0861165,2.53799973 L1.27397641,2.53799973 L1.27397641,1.26899987 Z" id="Shape"></path>
                                <polygon id="Path-Copy-5" transform="translate(15.566399, 1.988100) rotate(90.000000) translate(-15.566399, -1.988100) " points="14.2127994 1.35359994 16.9199992 1.35359994 16.9199992 2.6225998 14.2127994 2.6225998"></polygon>
                            </g>
                            <g id="Group-22" transform="translate(33.839998, 21.657599)">
                                <polygon id="Path" points="0 0 6.76799969 0 6.76799969 1.26899987 0 1.26899987"></polygon>
                                <polygon id="Path-Copy" points="8.7983996 0 15.5663993 0 15.5663993 1.26899987 8.7983996 1.26899987"></polygon>
                                <polygon id="Path-Copy-2" points="17.5967992 0 25.0415989 0 25.0415989 1.26899987 17.5967992 1.26899987"></polygon>
                            </g>
                            <g id="Group-21" transform="translate(33.839998, 19.221119)">
                                <polygon id="Path-Copy-3" points="0 0 11.5055995 0 11.5055995 1.26899987 0 1.26899987"></polygon>
                                <polygon id="Path-Copy-4" points="13.5359994 0 25.0415989 0 25.0415989 1.26899987 13.5359994 1.26899987"></polygon>
                            </g>
                            <g id="Group-20" transform="translate(33.839998, 16.784639)">
                                <polygon id="Path-Copy-5" points="0 0 17.5967992 0 17.5967992 1.26899987 0 1.26899987"></polygon>
                                <polygon id="Path-Copy-6" points="19.6271991 0 25.0415989 0 25.0415989 1.26899987 19.6271991 1.26899987"></polygon>
                            </g>
                            <g id="Group-19" transform="translate(33.839998, 4.060800)">
                                <polygon id="Path-Copy-7" points="0 0 12.1823994 0 12.1823994 1.26899987 0 1.26899987"></polygon>
                                <polygon id="Path-Copy-8" points="14.2127994 0 25.0415989 0 25.0415989 1.26899987 14.2127994 1.26899987"></polygon>
                            </g>
                            <g id="Group-18" transform="translate(33.839998, 6.497280)">
                                <path d="M3.18494103,3.8069996 L24.7231048,3.8069996 C25.0749036,3.8069996 25.360093,3.5229243 25.360093,3.17249967 L25.360093,0.634499933 C25.360093,0.284075296 25.0749036,-4.4408921e-16 24.7231048,-4.4408921e-16 L0.636988206,-4.4408921e-16 C0.285189334,-4.4408921e-16 2.48689958e-14,0.284075296 2.48689958e-14,0.634499933 L2.48689958e-14,3.17249967 C2.48689958e-14,3.5229243 0.285189334,3.8069996 0.636988206,3.8069996 L1.91096462,3.8069996 L3.18494103,3.8069996 Z M1.27397641,1.26899987 L24.0861165,1.26899987 L24.0861165,2.53799973 L1.27397641,2.53799973 L1.27397641,1.26899987 Z" id="Shape"></path>
                                <polygon id="Path-Copy-5" transform="translate(8.798400, 1.988100) rotate(90.000000) translate(-8.798400, -1.988100) " points="7.44479966 1.35359994 10.1519995 1.35359994 10.1519995 2.6225998 7.44479966 2.6225998"></polygon>
                            </g>
                            <path d="M58.1624973,0 L5.28749976,0 C2.36729428,0 0,2.36729428 0,5.28749976 L0,47.5874978 C0,48.98983 0.557074268,50.3347262 1.54867282,51.3263248 C2.54027138,52.3179233 3.88516763,52.8749976 5.28749976,52.8749976 L58.1624973,52.8749976 C61.0827028,52.8749976 63.4499971,50.5077033 63.4499971,47.5874978 L63.4499971,5.28749976 C63.4499971,2.36729428 61.0827028,0 58.1624973,0 Z M61.3349972,47.5874978 C61.3349972,49.3396211 59.9146206,50.7599977 58.1624973,50.7599977 L5.28749976,50.7599977 C3.53537647,50.7599977 2.1149999,49.3396211 2.1149999,47.5874978 L2.1149999,5.28749976 C2.1149999,3.53537647 3.53537647,2.1149999 5.28749976,2.1149999 L58.1624973,2.1149999 C59.9146206,2.1149999 61.3349972,3.53537647 61.3349972,5.28749976 L61.3349972,47.5874978 Z" id="Shape"></path>
                        </g>
                    </g>
                </g>
            </g>
        </g>
    </g>
</svg>