<?xml version="1.0" encoding="UTF-8"?>
<svg width="24px" height="23px" viewBox="0 0 24 23" version="1.1" xmlns="http://www.w3.org/2000/svg" xmlns:xlink="http://www.w3.org/1999/xlink">
    <!-- Generator: Sketch 61.2 (89653) - https://sketch.com -->
    <title>noun_internet_1304052</title>
    <desc>Created with Sketch.</desc>
    <g id="Symbols" stroke="none" stroke-width="1" fill="none" fill-rule="evenodd" fill-opacity="0.5">
        <g id="contact/light" transform="translate(-169.000000, -28.000000)" fill="#FFFFFF" fill-rule="nonzero">
            <g id="Group-3" transform="translate(169.000000, 28.000000)">
                <g id="noun_internet_1304052">
                    <path d="M12,5 C8.13400675,5 5,8.13400675 5,12 C5,15.8659932 8.13400675,19 12,19 C15.8659932,19 19,15.8659932 19,12 C19,10.1434846 18.2625021,8.36300718 16.9497475,7.05025253 C15.6369928,5.73749788 13.8565154,5 12,5 Z M11.78125,8.0865625 C10.9639668,8.07573799 10.1495265,7.98784874 9.34875,7.8240625 C9.93143297,6.85471927 10.7741379,6.06809364 11.78125,5.5534375 L11.78125,8.0865625 Z M11.78125,8.5240625 L11.78125,11.78125 L8.28125,11.78125 C8.28180481,10.5468004 8.56858569,9.32929196 9.1190625,8.224375 C9.99425323,8.41274252 10.8860842,8.51313763 11.78125,8.5240625 L11.78125,8.5240625 Z M12.21875,8.5240625 C13.1055742,8.50715605 13.9885379,8.4023728 14.8546875,8.21125 C15.4193044,9.31679406 15.7153323,10.5398765 15.71875,11.78125 L12.21875,11.78125 L12.21875,8.5240625 Z M12.21875,8.0865625 L12.21875,5.5578125 C13.2091807,6.0793378 14.0404956,6.85850664 14.625,7.813125 C13.833184,7.97901784 13.0275992,8.07056156 12.21875,8.0865625 L12.21875,8.0865625 Z M12.9975,5.5140625 C14.3300424,5.71884621 15.5668772,6.33000609 16.5390625,7.2640625 L16.0425,7.4303125 C15.723125,7.53677083 15.4001042,7.63010417 15.0734375,7.7103125 C14.5543308,6.83225418 13.8449519,6.08176267 12.9975,5.5140625 L12.9975,5.5140625 Z M8.9178125,7.7278125 C8.52625,7.63375 8.136875,7.5221875 7.75625,7.3909375 L7.445625,7.28375 C8.41933996,6.33969422 9.66219942,5.72132196 11.0025,5.5140625 C10.1499682,6.08581715 9.43738799,6.84251302 8.9178125,7.7278125 L8.9178125,7.7278125 Z M7.6053125,7.804375 C7.96260417,7.92833333 8.3271875,8.03552083 8.6990625,8.1259375 C8.14077638,9.26386395 7.84831194,10.5137567 7.84375,11.78125 L5.4375,11.78125 C5.48743003,10.2421845 6.07932121,8.77020386 7.10875,7.625 L7.6053125,7.804375 Z M7.84375,12.21875 C7.85565098,13.4133371 8.1312796,14.5905476 8.6509375,15.66625 C8.29947917,15.7552083 7.95166667,15.8594792 7.6075,15.9790625 L6.95125,16.1978125 C6.0164585,15.0777275 5.48355681,13.6769353 5.4375,12.21875 L7.84375,12.21875 Z M8.28125,12.21875 L11.78125,12.21875 L11.78125,15.2571875 C10.8770048,15.2692168 9.97628719,15.3725539 9.0928125,15.565625 C8.57199779,14.5259748 8.29447698,13.381482 8.28125,12.21875 Z M11.78125,15.6925 L11.78125,18.4203125 C10.764175,17.8226433 9.91464276,16.9776258 9.3115625,15.96375 C10.1242398,15.7946685 10.9512473,15.7038369 11.78125,15.6925 Z M12.21875,15.6925 C13.0514475,15.7083739 13.8806855,15.8043369 14.695,15.9790625 C14.0951975,16.9948763 13.2419491,17.8375722 12.21875,18.4246875 L12.21875,15.6925 Z M12.21875,15.255 L12.21875,12.21875 L15.71875,12.21875 C15.7085302,13.3864303 15.4340648,14.5366424 14.9159375,15.583125 C14.0302203,15.3834917 13.1265253,15.2742861 12.21875,15.2571875 L12.21875,15.255 Z M16.15625,12.21875 L18.5625,12.21875 C18.5149086,13.6843413 17.9755528,15.0912894 17.03125,16.213125 L16.1825,15.9375 C15.9025,15.8434375 15.6203125,15.7625 15.33375,15.688125 C15.8624022,14.6071846 16.1433861,13.4219706 16.15625,12.21875 L16.15625,12.21875 Z M16.15625,11.78125 C16.148606,10.5062572 15.8493001,9.24992082 15.28125,8.1084375 C15.5809375,8.031875 15.8784375,7.9465625 16.1715625,7.848125 L16.878125,7.625 C17.9121608,8.76842611 18.5087573,10.2405472 18.5625,11.78125 L16.15625,11.78125 Z M7.2815625,16.554375 L7.7540625,16.3903125 C8.1215625,16.265625 8.5,16.15625 8.8696875,16.064375 C9.42321089,17.0296428 10.1828148,17.8609497 11.094375,18.4990625 C9.64151283,18.2961342 8.29884267,17.6113185 7.2815625,16.554375 L7.2815625,16.554375 Z M12.905625,18.4990625 C13.8120832,17.8650021 14.56849,17.039899 15.1215625,16.081875 C15.4321875,16.160625 15.740625,16.248125 16.0446875,16.34875 L16.7009375,16.5675 C15.6863249,17.6161616 14.3505758,18.2959693 12.905625,18.4990625 L12.905625,18.4990625 Z" id="Shape"></path>
                    <path d="M16.285548,23 C16.126564,23 15.976172,22.9052452 15.913672,22.7496459 C15.83242,22.5459927 15.932424,22.3152071 16.137892,22.2342109 L16.28086,22.1766603 C20.483984,20.4505365 23.2,16.4187155 23.2,11.9053699 C23.2,5.77829113 18.17578,0.793691327 12,0.793691327 C5.82422,0.793691327 0.8,5.77829113 0.8,11.9053699 C0.8,16.4499115 3.541796,20.4921973 7.785156,22.2035942 C7.989844,22.2861421 8.08828,22.5175071 8.005076,22.720577 C7.921484,22.9236509 7.688668,23.0209257 7.483592,22.9387627 C2.9375,21.1052921 0,16.7744837 0,11.9053699 C0,5.34075291 5.383204,0 12,0 C18.616796,0 24,5.34075291 24,11.9053699 C24,16.7409581 21.090236,21.0605319 16.58672,22.9100867 L16.433204,22.9717049 C16.384764,22.9908924 16.334764,23 16.285548,23 Z" id="Path"></path>
                </g>
            </g>
        </g>
    </g>
</svg>