<?xml version="1.0" encoding="UTF-8"?>
<svg width="64px" height="60px" viewBox="0 0 64 60" version="1.1" xmlns="http://www.w3.org/2000/svg" xmlns:xlink="http://www.w3.org/1999/xlink">
    <!-- Generator: Sketch 58 (84663) - https://sketch.com -->
    <title>map</title>
    <desc>Created with Sketch.</desc>
    <g id="Main" stroke="none" stroke-width="1" fill="none" fill-rule="evenodd">
        <g id="project-page" transform="translate(-822.000000, -5293.000000)" fill-rule="nonzero">
            <g id="challenge" transform="translate(159.000000, 4954.000000)">
                <g id="two-col" transform="translate(108.000000, 174.000000)">
                    <g id="Group-29" transform="translate(555.000000, 165.000000)">
                        <g id="map">
                            <path d="M10.8465057,50.666588 C11.4004053,49.8359855 11.6926296,48.858426 11.6854557,47.8601005 C11.6854558,46.0617326 10.726038,44.3999722 9.16860575,43.5007883 C7.61117352,42.6016044 5.69233789,42.6016044 4.13490566,43.5007883 C2.57747344,44.3999722 1.61805564,46.0617326 1.61805567,47.8601005 C1.61881989,48.8448262 1.91070322,49.8073462 2.45700567,50.626638 C0.916110594,51.6507799 -0.00701021037,53.3806933 4.00957896e-05,55.2308755 L4.00957896e-05,59.0461005 L1.99758067,59.0461005 L1.99758067,55.2308755 C2.00171812,53.9201915 2.73261084,52.7199887 3.89520568,52.1147755 L4.01505568,52.184688 L4.30469319,52.344488 L4.69420569,52.524263 L5.15363069,52.6940505 L5.31343069,52.6940505 C5.74854169,52.8204455 6.19870026,52.8876333 6.65175571,52.8938005 C7.10481115,52.8876333 7.55496972,52.8204455 7.99008072,52.6940505 L8.14988072,52.6940505 L8.60930572,52.524263 C8.7403926,52.4745239 8.86730335,52.4144083 8.98883072,52.344488 L9.28845573,52.184688 L9.40830573,52.1147755 C10.5709006,52.7199887 11.3017933,53.9201915 11.3059307,55.2308755 L11.3059307,59.0461005 L13.3034308,59.0461005 L13.3034308,55.2308755 C13.295367,53.3952997 12.3742547,51.6841276 10.8465057,50.666588 L10.8465057,50.666588 Z M6.65175571,44.8638504 C7.95694576,44.7972684 9.15472478,45.5843228 9.61160016,46.8087488 C10.0684756,48.0331748 9.67903753,49.4124743 8.64925572,50.2171505 C7.8093328,50.900754 6.67400092,51.0975449 5.6530057,50.7365005 C5.31653353,50.6232765 5.00469715,50.4470211 4.73415569,50.2171505 C3.70437389,49.4124743 3.31493586,48.0331748 3.77181125,46.8087488 C4.22868664,45.5843228 5.42646565,44.7972684 6.73165571,44.8638504 L6.65175571,44.8638504 Z" id="Shape" fill="#E26A77"></path>
                            <path d="M52.51348,52.814968 C51.527569,53.140531 50.7630362,53.9274403 50.4660425,54.9223305 L27.3449798,54.9223305 C27.1000843,52.5829611 25.1278513,50.8064129 22.7756985,50.8064129 C20.4235457,50.8064129 18.4513127,52.5829611 18.2064172,54.9223305 L16.2688422,54.9223305 C12.6983766,54.921665 9.47977729,52.7705683 8.11350928,49.4718508 C6.74724126,46.1731333 7.50228687,42.3762261 10.0266547,39.8511929 C11.6774152,38.1895942 13.9266759,37.2610994 16.2688422,37.2744179 L47.31998,37.2744179 C53.2992632,37.2744179 58.14643,32.4272511 58.14643,26.4479678 C58.14643,20.4686845 53.2992632,15.6215177 47.31998,15.6215177 L41.5272299,15.6215177 C41.2823344,13.2821483 39.3101015,11.5056001 36.9579486,11.5056001 C34.6057958,11.5056001 32.6335628,13.2821483 32.3886673,15.6215177 L12.3337672,15.6215177 L12.3337672,17.6190177 L32.5984048,17.6190177 C33.2424204,19.4761869 34.992285,20.721472 36.9579486,20.721472 C38.9236122,20.721472 40.6734769,19.4761869 41.3174924,17.6190177 L47.3099925,17.6190177 C52.1860869,17.6190177 56.1389425,21.5718733 56.1389425,26.4479678 C56.1389425,31.3240623 52.1860869,35.2769178 47.3099925,35.2769178 L16.2688422,35.2769178 C12.3243146,35.1570699 8.62703072,37.1930145 6.61935605,40.5904995 C4.61168137,43.9879845 4.61168137,48.2087639 6.61935605,51.6062488 C8.62703072,55.0037338 12.3243146,57.0396785 16.2688422,56.9198305 L18.3562297,56.9198305 C19.0054327,58.7744464 20.7558081,60.0162493 22.7207673,60.0162493 C24.6857264,60.0162493 26.4361019,58.7744464 27.0853048,56.9198305 L50.51598,56.9198305 C51.0206247,58.3219456 52.429746,59.1869636 53.9084324,59.0023569 C55.3871188,58.8177502 56.5403166,57.6328395 56.6847504,56.1496901 C56.8291842,54.6665408 55.9262663,53.2813989 54.51098,52.814968 C54.1592413,52.7033003 53.8263246,52.6474664 53.51223,52.6474664 C53.1981354,52.6474664 52.8652188,52.7033003 52.51348,52.814968 Z M36.9529549,18.7115443 C35.6550285,18.7115443 34.5516864,17.7635639 34.3562049,16.4804427 C34.3353407,16.3483671 34.3286444,16.2144407 34.3362299,16.0809427 C34.4217662,14.6957546 35.5701221,13.6161232 36.9579486,13.6161232 C38.3457751,13.6161232 39.494131,14.6957546 39.5796674,16.0809427 C39.5849372,16.2148161 39.5748844,16.348853 39.5497049,16.4804427 C39.3542233,17.7635639 38.2508813,18.7115443 36.9529549,18.7115443 Z M22.7507298,58.0752745 C21.4303407,58.0752745 20.3168159,57.0915653 20.1539797,55.7812555 C20.1440539,55.6716172 20.1440539,55.5613063 20.1539797,55.451668 C20.0937562,54.4764001 20.5798651,53.5483076 21.4158589,53.0424532 C22.2518528,52.5365989 23.2995442,52.5365989 24.1355381,53.0424532 C24.971532,53.5483076 25.4576408,54.4764001 25.3974173,55.451668 C25.3915587,55.5628961 25.3748332,55.6732842 25.3474798,55.7812555 C25.1846436,57.0915653 24.0711188,58.0752745 22.7507298,58.0752745 Z M52.3837239,56.4667485 C52.1446739,56.0803585 52.1446739,55.592015 52.3837239,55.205625 C52.6227739,54.819235 53.0597642,54.6012466 53.51223,54.6426805 C54.1292137,54.6991799 54.6014365,55.2166215 54.6014365,55.8361868 C54.6014365,56.455752 54.1292137,56.9731937 53.51223,57.029693 C53.0597642,57.0711269 52.6227739,56.8531385 52.3837239,56.4667485 Z" id="Shape" fill="#E26A77" transform="translate(31.630015, 35.760925) scale(1, -1) translate(-31.630015, -35.760925) "></path>
                            <path d="M61.6828005,5.34331254 L63.490538,2.74656252 C63.6910734,2.45020751 63.7177429,2.06921547 63.5604505,1.74781251 C63.3857495,1.41969767 63.0432785,1.21575423 62.671563,1.21847501 L54.4119004,1.21847501 L54.4119004,0.998750008 C54.4119004,0.44715561 53.9647448,1.80122584e-12 53.4131504,1.80122584e-12 C52.861556,1.80122584e-12 52.4144004,0.44715561 52.4144004,0.998750008 L52.4144004,14.2721376 L54.4119004,14.2721376 L54.4119004,9.49811258 L62.671563,9.49811258 C63.0432785,9.50083335 63.3857495,9.29688991 63.5604505,8.96877507 C63.7177429,8.64737212 63.6910734,8.26638007 63.490538,7.97002506 L61.6828005,5.34331254 Z M59.655338,5.91260005 L60.7639505,7.50061256 L54.4119004,7.50061256 L54.4119004,3.17602503 L60.7639505,3.17602503 L59.655338,4.77402504 C59.4178282,5.11639115 59.4178282,5.57023394 59.655338,5.91260005 Z" id="Shape" fill="#E26A77"></path>
                            <g id="Group-28" transform="translate(24.928800, 28.124800)">
                                <path d="M12.5115787,4.52477469 C12.2850082,3.83065342 11.6856899,3.32413281 10.9635162,3.21641218 L8.96601621,2.95673718 L8.0271912,1.06909966 C7.70342878,0.401981061 7.02074057,-0.0154340157 6.27937869,0.000437152159 C5.56821712,0.0196844181 4.9261582,0.431063487 4.61146617,1.06909966 L3.74255367,2.91678718 L1.65516615,3.21641218 C0.931985328,3.32190196 0.331642392,3.82928857 0.107103638,4.52477469 C-0.141329075,5.22869254 0.0508056282,6.01291582 0.596491142,6.5222747 L2.08462865,7.93051222 L1.67514115,9.98793723 C1.56415783,10.7017259 1.86371679,11.4173188 2.45010101,11.8391779 C3.03648523,12.2610371 3.81018566,12.3175733 4.45166617,11.9854372 L6.23942869,10.9866872 L8.1170787,11.9854372 C8.75617165,12.3244898 9.53320876,12.266212 10.1145787,11.8356247 C10.7050258,11.4184156 11.0071049,10.7019461 10.8936037,9.98793723 L10.5140787,7.99043722 L12.0221912,6.5122872 C12.5592708,6.00209368 12.7503666,5.22601094 12.5115787,4.52477469 L12.5115787,4.52477469 Z" id="Path" fill="#FFFFFF"></path>
                                <path d="M10.9635162,3.21641218 L8.96601621,2.95673718 L8.0271912,1.06909966 C7.70342878,0.401981061 7.02074057,-0.0154340157 6.27937869,0.000437152157 C5.56821712,0.0196844181 4.9261582,0.431063487 4.61146617,1.06909966 L3.74255367,2.91678718 L1.65516615,3.21641218 C0.931985328,3.32190196 0.331642392,3.82928857 0.107103638,4.52477469 C-0.141329075,5.22869254 0.0508056282,6.01291582 0.596491142,6.5222747 L2.08462865,7.93051222 L1.67514115,9.98793723 C1.56415783,10.7017259 1.86371679,11.4173188 2.45010101,11.8391779 C3.03648523,12.2610371 3.81018566,12.3175733 4.45166617,11.9854372 L6.23942869,10.9866872 L8.1170787,11.9854372 C8.75617165,12.3244898 9.53320876,12.266212 10.1145787,11.8356247 C10.7050258,11.4184156 11.0071049,10.7019461 10.8936037,9.98793723 L10.5140787,7.99043722 L12.0221912,6.5122872 C12.5592708,6.00209368 12.7503666,5.22601094 12.5115787,4.52477469 C12.2850082,3.83065342 11.6856899,3.32413281 10.9635162,3.21641218 Z M9.11582871,6.5222747 C8.67589125,6.96928241 8.48523826,7.60479239 8.60646621,8.22014972 L8.93605371,10.1377497 L7.2182037,9.23887473 C6.65831147,8.94582045 5.9903334,8.94582045 5.43044118,9.23887473 L3.71259117,10.1377497 L4.04217867,8.22014972 C4.14442807,7.60167076 3.93953762,6.97209828 3.49286617,6.5322622 L2.09461615,5.17396219 L4.02220367,4.89431219 C4.63510401,4.81407062 5.17113197,4.44182898 5.46040368,3.89556218 L6.29935369,2.09781217 L7.17825369,3.89556218 C7.46950083,4.44447858 8.00985539,4.81713689 8.62644121,4.89431219 L10.5440412,5.17396219 L9.11582871,6.5222747 Z" id="Shape" fill="#E26A77"></path>
                            </g>
                        </g>
                    </g>
                </g>
            </g>
        </g>
    </g>
</svg>